# xmcd
#
# Track frame offsets:
#	150
#	6909
#	43345
#	69850
#	86859
#	97822
#	125552
#	140255
#	160677
#	169683
#	179204
#	202804
#	216526
#
# Disc length: 3134 seconds
#
# Revision: 0
# Processed by: cddbd v1.5.2PL0 Copyright (c) Steve Scherf et al.
# Submitted via: audiograbber 1.83.01
#
DISCID=b70c3c0d
DTITLE=Grateful Dead - 70-03-20 Capitol Theatre, Port Chester NY
DYEAR=1900
DGENRE=
TTITLE0=Intro
TTITLE1=Hard To Handle
TTITLE2=Deep Elem Blues
TTITLE3=Friend Of The Devil
TTITLE4=Don't Ease Me In
TTITLE5=Black Peter
TTITLE6=Uncle John's Band
TTITLE7=Katie Mae
TTITLE8=Drums > Good Lovin'
TTITLE9=Drums
TTITLE10=Not Fade Away
TTITLE11=Drums
TTITLE12=Good Lovin'
EXTD=
EXTT0=
EXTT1=
EXTT2=
EXTT3=
EXTT4=
EXTT5=
EXTT6=
EXTT7=
EXTT8=
EXTT9=
EXTT10=
EXTT11=
EXTT12=
PLAYORDER=
